<svg xmlns="http://www.w3.org/2000/svg" width="201" height="32" viewBox="0 0 201 32" fill="none"><g clip-path="url(#a)"><path fill="url(#b)" d="M41.371 7.638c-.521-1.13-2.323-1.075-3.633-.936-1.23.13-3.062.496-4.9.976a30 30 0 0 0-.275-1.247c-.381-1.552-1.036-3.07-1.947-4.374-.24-.354-.683-.9-.958-1.243l-.276-.35c-.08-.1-.192-.262-.299-.334a.725.725 0 0 0-.853.019.7.7 0 0 1 .84-.003c.103.068.206.252.274.344q.126.183.247.369.245.369.47.75c.437.755.735 1.585.892 2.429.216 1.123.19 2.265.118 3.399l-.02.388a14.87 14.87 0 0 0-6.855-3.619q.023-.053.049-.103c.139-.276.343-.53.539-.771 1.014-1.184 2.208-2.218 3.446-3.183q-.843.657-1.72 1.272-.592.433-1.195.856c-.502.36-1.014.701-1.478 1.117-.213.197-.404.39-.553.634a15.4 15.4 0 0 0-2.496-.202c-2.043 0-3.987.399-5.755 1.12a5 5 0 0 0-.364-.22c-.556-.296-1.139-.506-1.716-.74-.462-.181-.92-.363-1.376-.554-.67-.26-1.336-.541-1.99-.835 1.444.65 2.864 1.376 4.148 2.289.171.128.347.263.507.41a14.6 14.6 0 0 0-5.659 4.757c-.318-.995-.587-2.007-.655-3.05a7.6 7.6 0 0 1 .251-2.564q.122-.42.266-.837.07-.208.146-.415c.044-.116.098-.303.179-.397a.69.69 0 0 1 .816-.193.72.72 0 0 0-.833.18c-.086.089-.155.29-.205.394q-.09.202-.18.403c-.175.393-.473 1.03-.614 1.43-.555 1.475-.806 3.1-.784 4.694.015.725.046 1.43.123 2.149.027.218.06.439.115.654A13.54 13.54 0 0 0 6.112 18.8c-1.74 1.04-3.164 2.01-4.168 2.842-1.036.86-2.353 2.138-1.822 3.289.47 1.02 2.013 1.03 2.717 1.003l.168-.008c1.219-.06 2.85-.344 4.848-.845l.235-.06.032.053c.82-.175 1.489-.364 2.573-.683.42-.124 1.176-.274 3.221-1.13.994-.417 2.293-1 4.006-1.83 1.327-.641 2.573-1.327 3.692-1.942a7.7 7.7 0 0 0 1.535-1.51c.257-.338.5-.718.711-1.144.091-.181 1.214-2.52.47-5.22a7 7 0 0 0-.189-.583c.087.146.216.353.386.592.318.448 1.487 2.055 3.479 2.942.478.213.955.363 1.419.464h.395l-.152.078c1.274.278 2.448.192 3.28.048l.375-.206c.196-.048.351-.093.456-.125a7 7 0 0 0-.71.376c-.45.27-2.091 1.323-2.977 3.311-1.146 2.57-.248 4.954-.046 5.455a8 8 0 0 0-.345-.535c-.371-.53-1.82-2.596-4.542-3.312a8.2 8.2 0 0 0-1.59-.253c-2.261 1.512-3.492 3.326-4.558 4.454-.888.94-2.634 3.212-4.078 6.519A15.2 15.2 0 0 0 20.788 32c8.121 0 14.704-6.307 14.704-14.087 0-1.345-.197-2.645-.564-3.876a58 58 0 0 0 1.355-.818c1.731-1.079 3.049-2.043 3.915-2.867.417-.396 1.686-1.603 1.173-2.714M13.704 20.177a4 4 0 0 0-.125-.253c-.136-.252-.669-1.233-1.834-1.678a3.7 3.7 0 0 0-1.94-.186l-.262.044c.278-.093 1.19-.435 1.799-1.37.049-.076.666-1.056.477-2.283a3 3 0 0 0-.053-.267c.03.07.077.167.14.28.117.213.55.978 1.383 1.465 1.081.63 2.24.444 2.536.388-.082.028-.198.07-.333.133-.212.097-.991.484-1.485 1.32-.64 1.081-.366 2.176-.303 2.407M1.65 24.282c.087-.2.417-.735 1.675-1.727.782-.616 1.801-1.31 3.006-2.052.21 1.083.55 2.122 1.002 3.103-4.086 1.016-5.363.786-5.683.676M34.875 12.24q-.16.098-.327.197l-.167.1-.076-.178a14 14 0 0 0-1.377-2.396q.049-.135.075-.284c.028-.15.038-.302.039-.453 1.642-.437 3.331-.782 4.467-.933 1.518-.2 2.126-.08 2.332-.007-.137.318-.889 1.48-4.966 3.954"/><g fill="#FFB709"><path d="M28.23.149a.725.725 0 0 1 .853-.02c.107.073.22.235.3.335q.136.176.275.35c.275.344.718.889.958 1.243.91 1.303 1.566 2.822 1.947 4.374.17.707.317 1.397.425 2.113.05.373.084.759.015 1.135-.14.793-.768 1.282-1.564 1.453-.823.167-1.608.023-2.383-.198-2.081-.66-3.937-1.938-5.196-3.663-.6-.86-1.136-2.02-.676-3.055.156-.337.388-.577.653-.822.464-.416.976-.757 1.478-1.117.402-.283.8-.565 1.194-.856A41 41 0 0 0 28.23.149m0 0c-1.238.965-2.432 2-3.446 3.183-.196.241-.4.495-.54.77a1.3 1.3 0 0 0-.144.442c-.007.19.04.371.121.549.713 1.52 4.36 3.335 6.027 3.761.237.064.537.117.763.116.046 0 .055-.001.029.027-.006.01-.017.016-.022.026a.45.45 0 0 0-.119.166c-.007.027-.007.029-.006.038q0 .005.001.005l.008-.007c.003 0 .005-.009.008-.015l.008-.019.008-.025.009-.03c.034-.135.048-.28.062-.422.024-.27.058-.995.074-1.277.072-1.134.098-2.276-.118-3.4a7.7 7.7 0 0 0-.892-2.428 17 17 0 0 0-.47-.75 18 18 0 0 0-.247-.37c-.068-.091-.171-.275-.274-.343a.7.7 0 0 0-.84.003M9.586 2.597a.69.69 0 0 0-.816.193c-.081.094-.135.281-.179.397q-.075.207-.146.415-.144.416-.266.837a7.6 7.6 0 0 0-.251 2.564c.074 1.14.388 2.242.745 3.325.087.27.3.962.395 1.221.048.136.099.273.166.396l.016.027q.008.015.015.023l.012.016c.004.005.009.014.011.012.007 0 .012.011.01 0a.2.2 0 0 0-.038-.062.5.5 0 0 0-.135-.106c-.032-.03-.083-.039-.007-.054.22-.052.497-.172.71-.289 1.508-.799 4.59-3.406 4.898-5.048.033-.19.034-.378-.021-.56a1.3 1.3 0 0 0-.253-.395c-.204-.235-.466-.435-.717-.623-1.284-.913-2.704-1.639-4.149-2.289m0 0q.984.442 1.99.835.685.285 1.377.554c.577.233 1.16.444 1.716.74.319.177.604.355.841.647.708.898.482 2.147.116 3.12-.784 1.966-2.262 3.637-4.114 4.76-.696.395-1.421.716-2.263.745-.813.02-1.548-.31-1.884-1.046-.162-.35-.226-.732-.272-1.105a25 25 0 0 1-.123-2.149c-.022-1.594.23-3.22.784-4.695.141-.4.439-1.036.614-1.429q.09-.2.18-.403c.05-.104.12-.305.205-.394a.72.72 0 0 1 .833-.18"/></g><path fill="url(#c)" d="M34.305 12.36A14 14 0 0 0 32.41 9.28q-.548-.676-1.177-1.285c-2.665-2.575-6.36-4.17-10.444-4.17-8.121 0-14.705 6.307-14.705 14.087a13.7 13.7 0 0 0 .249 2.59c.21 1.083.55 2.122 1.002 3.103l.756 1.415.032.052c.82-.175 1.489-.364 2.573-.683.42-.125 1.176-.274 3.221-1.13l7.794-4.663q.725-.307 1.439-.619c.257-.338.5-.718.711-1.144.09-.181 1.214-2.52.47-5.22a7 7 0 0 0-.189-.583c.087.146.216.353.386.592.318.448 1.487 2.055 3.479 2.942a7.3 7.3 0 0 0 1.419.464l1.604.002 1.675.047a9 9 0 0 0 1.075-.254 7 7 0 0 0-.71.376c-.45.27-2.091 1.323-2.977 3.311-1.146 2.57-.248 4.954-.046 5.455a8 8 0 0 0-.345-.535c-.371-.53-1.82-2.596-4.542-3.312a8.2 8.2 0 0 0-1.59-.253c-2.261 1.512-3.492 3.326-4.558 4.454-.888.94-2.634 3.212-4.078 6.519A15.2 15.2 0 0 0 20.788 32c8.12 0 14.704-6.307 14.704-14.087a13.5 13.5 0 0 0-.62-4.063l-.226-.69zm-18.813 4.09c-.212.097-.991.484-1.485 1.32-.64 1.081-.366 2.176-.303 2.407a4 4 0 0 0-.125-.253c-.136-.252-.669-1.233-1.834-1.678a3.7 3.7 0 0 0-1.94-.186l-.262.044c.278-.093 1.19-.435 1.799-1.37.049-.076.666-1.056.477-2.283a3 3 0 0 0-.053-.267c.03.07.077.167.14.28.117.213.55.978 1.383 1.465 1.081.63 2.24.444 2.536.388-.082.028-.198.07-.333.133"/><path fill="url(#d)" d="M35.492 17.913c0-1.298-.183-2.554-.526-3.747-.31.175-.537.293-.657.355-.304.155-.565.278-.803.381a9 9 0 0 0 .273-.078 7 7 0 0 0-.71.376c-.45.27-2.091 1.323-2.977 3.311-1.146 2.57-.248 4.954-.046 5.455a8 8 0 0 0-.345-.535c-.371-.53-1.82-2.596-4.542-3.312a8.2 8.2 0 0 0-1.59-.253c-2.261 1.512-3.492 3.326-4.558 4.454-.887.94-2.634 3.212-4.078 6.519A15.2 15.2 0 0 0 20.788 32c8.121 0 14.704-6.307 14.704-14.087"/><g fill="#fff"><path d="M18.026 16.773c1.827-3.952 1.217-8.042-1.362-9.136s-6.15 1.223-7.977 5.175-1.216 8.042 1.363 9.136 6.15-1.223 7.976-5.175" opacity=".18"/><path d="M16.004 16.005c1.44-3.117 1.122-6.274-.712-7.051-1.833-.778-4.487 1.118-5.927 4.235s-1.122 6.274.711 7.052 4.487-1.119 5.928-4.236" opacity=".22"/></g><path fill="#FFB709" d="M33.03 9.229c1.645-.438 3.34-.785 4.479-.936 1.518-.2 2.126-.08 2.332-.007-.137.318-.889 1.48-4.966 3.954q-.16.099-.327.197-.45.27-.928.544a86 86 0 0 1-3.952 2.126c1.274.278 2.448.192 3.28.048a78 78 0 0 0 2.166-1.228q.608-.357 1.169-.708c1.731-1.079 3.049-2.043 3.915-2.867.417-.396 1.686-1.603 1.173-2.714-.521-1.13-2.323-1.075-3.633-.936-1.238.131-3.086.5-4.935.985"/><path fill="url(#e)" d="M9.954 22.89a65 65 0 0 1-2.62.716c-4.086 1.016-5.363.786-5.683.676.087-.2.417-.735 1.675-1.727.782-.616 1.801-1.31 3.006-2.052a14 14 0 0 1-.22-1.704c-1.74 1.04-3.164 2.01-4.168 2.842-1.036.86-2.353 2.138-1.822 3.289.47 1.02 2.013 1.03 2.717 1.003l.168-.008c1.219-.06 2.85-.344 4.848-.845l.235-.06a65 65 0 0 0 2.146-.59c1.167-.341 2.4-.734 3.68-1.17.994-.417 2.293-1 4.006-1.83 1.327-.641 2.573-1.327 3.692-1.942a7.7 7.7 0 0 0 1.535-1.51q-.713.312-1.439.62c-4.163 1.763-8.26 3.256-11.756 4.291"/><path fill="#212121" d="M57.496 28.61q-3.713 0-6.156-1.507t-3.412-4.07l5.119-2.853q1.305 2.98 4.616 2.98 2.745 0 2.744-1.506 0-.993-1.573-1.602-.669-.256-2.944-.866-3.21-.897-5.085-2.5-1.873-1.634-1.873-4.519 0-3.109 2.308-5.031 2.342-1.924 5.821-1.924 2.945 0 5.22 1.315t3.479 3.813l-5.019 2.82q-1.104-2.499-3.646-2.499-1.07 0-1.64.417-.535.416-.535 1.058 0 .736.803 1.25.837.511 3.212 1.185 1.706.48 2.743.898 1.038.416 2.275 1.217 1.238.77 1.84 2.02.602 1.218.602 2.884 0 3.301-2.442 5.16-2.442 1.86-6.457 1.86M119.956 28.129l-4.081-7.244h-2.141v7.244h-5.989V5.693h9.368q3.579 0 5.988 2.212 2.442 2.179 2.442 5.545a6.83 6.83 0 0 1-1.07 3.717q-1.07 1.667-2.911 2.66l4.818 8.302zm-6.222-17.147v5.032h3.312q1.104.031 1.807-.674t.702-1.827q0-1.12-.702-1.826-.703-.705-1.807-.705zM137.591 5.693q3.546 0 5.955 2.212 2.409 2.211 2.409 5.64 0 3.43-2.409 5.641-2.409 2.212-5.955 2.212h-3.111v6.73h-5.989V5.694zm0 10.256q1.004 0 1.673-.673.702-.672.702-1.73t-.702-1.7q-.67-.672-1.673-.672h-3.111v4.775zM154.279 22.744h9.066v5.385H148.29V5.693h14.888v5.353h-8.899v3.109h8.062v5.288h-8.062zM192.101 28.61q-3.713 0-6.156-1.507t-3.412-4.07l5.119-2.853q1.303 2.98 4.617 2.98 2.743 0 2.743-1.506 0-.993-1.572-1.602-.67-.256-2.945-.866-3.212-.897-5.085-2.5-1.874-1.634-1.874-4.519 0-3.109 2.309-5.031 2.342-1.924 5.821-1.924 2.945 0 5.219 1.315 2.276 1.314 3.479 3.813l-5.018 2.82q-1.104-2.499-3.646-2.499-1.07 0-1.64.417-.535.416-.535 1.058 0 .736.803 1.25.837.511 3.212 1.185 1.705.48 2.743.898 1.037.416 2.275 1.217 1.237.77 1.84 2.02.602 1.218.602 2.884 0 3.301-2.442 5.16-2.443 1.86-6.457 1.86"/><path fill="#FA990E" d="M173.636 1.935c-.736 1.532-2.024 2.767-3.623 3.471 1.599.705 2.887 1.939 3.623 3.47.735-1.531 2.023-2.765 3.622-3.47-1.599-.704-2.887-1.939-3.622-3.47M75.494 11.043l-.018-.127-.016-.094q.02.11.034.22M75.454 10.784l-.005-.028zM75.772 13.145l-.007-.058-.27-2.038z"/><path fill="#212121" d="M98.314 5.693h-7.293L83.293 28.13h6.49l1.004-3.238h3.65l-.125-1.013c-.314-2.533-2.398-4.53-5.042-4.831l-2.048-.233a.198.198 0 0 1 0-.395l2.048-.232c2.077-.237 3.81-1.52 4.608-3.29l.397-1.29q.02-.124.037-.25l.243-1.963c.029-.233.383-.233.412 0l.243 1.962c.314 2.533 2.398 4.53 5.042 4.83l2.048.233a.198.198 0 0 1 0 .395l-2.048.233c-2.644.3-4.728 2.298-5.042 4.83l-.126 1.014h3.498l1.004 3.238h6.456zM84.678 5.718l-2.34.25c-3.022.322-5.404 2.461-5.763 5.175l-.277 2.102c-.033.25-.438.25-.471 0l-.278-2.102c-.358-2.714-2.74-4.853-5.763-5.176l-2.34-.249a.3.3 0 0 1-.09-.025h-.126v5.545h5.788v16.89h5.989v-16.89h5.787V5.693h-.025a.3.3 0 0 1-.09.025"/><path fill="#FA990E" d="M79.848 5.407c-1.704-.712-3.083-1.972-3.84-3.553-.758 1.58-2.137 2.841-3.841 3.553 1.704.71 3.083 1.97 3.84 3.553.758-1.582 2.136-2.843 3.841-3.553"/><path fill="#212121" d="m182.136 5.718-2.34.25c-3.022.322-5.404 2.461-5.763 5.175l-.277 2.102c-.033.25-.438.25-.471 0l-.278-2.102c-.358-2.714-2.741-4.853-5.762-5.176l-2.34-.249a.3.3 0 0 1-.091-.025h-.126v5.545h5.788v16.89h5.989v-16.89h5.787V5.693h-.025a.3.3 0 0 1-.091.025"/></g><defs><radialGradient id="b" cx="0" cy="0" r="1" gradientTransform="matrix(96.99045 -28.61318 15.21694 51.58104 43.98 -9.844)" gradientUnits="userSpaceOnUse"><stop offset=".006" stop-color="#F2601B"/><stop offset="1" stop-color="#FFC61F"/></radialGradient><radialGradient id="c" cx="0" cy="0" r="1" gradientTransform="matrix(34.0125 0 0 32.5844 53.784 16.003)" gradientUnits="userSpaceOnUse"><stop offset=".006" stop-color="#F2611B"/><stop offset="1" stop-color="#FEB10A"/></radialGradient><radialGradient id="d" cx="0" cy="0" r="1" gradientTransform="matrix(21.82575 -10.15323 4.89723 10.52726 21.537 19.626)" gradientUnits="userSpaceOnUse"><stop offset=".006" stop-color="#F2611B"/><stop offset="1" stop-color="#FEB10A"/></radialGradient><radialGradient id="e" cx="0" cy="0" r="1" gradientTransform="rotate(-16.437 66.029 -77.182)scale(25.3219 13.4666)" gradientUnits="userSpaceOnUse"><stop offset=".006" stop-color="#F2601B"/><stop offset="1" stop-color="#FFC61F"/></radialGradient><clipPath id="a"><path fill="#fff" d="M0 0h201v32H0z"/></clipPath></defs></svg>
